<?xml version="1.0" standalone="no"?>
<!DOCTYPE svg PUBLIC "-//W3C//DTD SVG 20010904//EN"
 "http://www.w3.org/TR/2001/REC-SVG-20010904/DTD/svg10.dtd">
<svg version="1.0" xmlns="http://www.w3.org/2000/svg" viewBox="0 0 476.000000 135.000000"
 preserveAspectRatio="xMidYMid meet">

<g transform="translate(0.000000,135.000000) scale(0.100000,-0.100000)"
fill="#000000" stroke="none">
<path d="M638 1242 l-498 -2 0 -573 0 -572 575 0 575 0 -2 575 -3 575 -75 0
c-41 0 -299 -1 -572 -3z m67 -332 c189 -81 366 -167 377 -184 25 -37 -10 -69
-67 -60 l-43 6 11 -42 c10 -37 10 -43 -8 -56 -10 -8 -30 -14 -44 -14 -33 0
-111 -75 -111 -108 0 -55 -41 -78 -92 -51 -20 11 -21 9 -15 -24 7 -47 -1 -75
-25 -83 -43 -13 -62 19 -200 341 -144 335 -153 366 -104 384 26 10 99 -14 321
-109z"/>
<path d="M2220 915 c0 -218 1 -225 20 -225 19 0 20 7 20 225 0 218 -1 225 -20
225 -19 0 -20 -7 -20 -225z"/>
<path d="M2440 915 c0 -218 1 -225 20 -225 19 0 20 7 20 225 0 218 -1 225 -20
225 -19 0 -20 -7 -20 -225z"/>
<path d="M1780 918 c-111 -248 -104 -228 -77 -228 17 0 27 13 46 55 l23 55
119 0 119 0 25 -55 c18 -41 29 -55 44 -55 12 0 21 2 21 5 0 3 -41 97 -91 210
-86 192 -93 205 -118 205 -24 0 -32 -14 -111 -192z m162 35 c26 -59 46 -108
44 -110 -2 -2 -46 -2 -98 -1 l-95 3 46 107 c25 59 48 108 51 108 3 0 26 -48
52 -107z"/>
<path d="M3670 1103 c0 -4 30 -99 67 -210 61 -183 70 -203 90 -203 20 0 28 18
79 180 32 99 60 177 63 174 3 -3 31 -83 61 -177 51 -159 57 -172 79 -172 22 0
29 14 88 190 35 105 66 198 69 208 5 15 1 18 -17 15 -21 -3 -29 -22 -79 -180
-30 -98 -57 -178 -60 -178 -3 0 -30 80 -60 178 -51 163 -58 177 -80 180 -24 3
-27 -4 -80 -173 -30 -97 -57 -178 -60 -180 -4 -2 -32 77 -64 176 -48 152 -60
179 -76 179 -11 0 -20 -3 -20 -7z"/>
<path d="M2701 992 c-48 -24 -73 -62 -79 -120 -9 -97 38 -164 126 -178 45 -7
120 15 142 41 19 22 -14 30 -42 11 -13 -9 -43 -16 -71 -16 -42 0 -54 5 -83 34
-19 19 -34 43 -34 55 0 20 5 21 131 21 l132 0 -7 43 c-4 23 -15 53 -24 67 -24
33 -79 60 -122 60 -19 0 -50 -8 -69 -18z m157 -57 c12 -15 22 -35 22 -46 0
-18 -8 -19 -110 -19 -70 0 -110 4 -110 10 0 6 6 23 14 38 34 65 133 74 184 17z"/>
<path d="M3050 850 c0 -150 1 -160 19 -160 17 0 19 10 23 98 5 112 18 145 63
167 50 23 83 19 116 -14 29 -29 29 -31 29 -140 0 -106 1 -111 21 -111 20 0 20
4 17 130 -3 126 -4 130 -31 157 -24 24 -35 28 -87 28 -50 0 -63 -4 -87 -27
-37 -35 -43 -35 -43 2 0 23 -4 30 -20 30 -19 0 -20 -7 -20 -160z"/>
<path d="M4358 728 c-8 -21 2 -38 22 -38 19 0 34 25 24 41 -8 13 -41 11 -46
-3z"/>
<path d="M1714 250 c0 -58 1 -84 3 -57 l4 47 65 0 64 0 0 -45 c0 -25 5 -45 10
-45 6 0 10 40 10 100 0 60 -4 100 -10 100 -5 0 -10 -20 -10 -45 l0 -45 -64 0
-65 0 -4 48 c-2 26 -3 0 -3 -58z"/>
<path d="M2051 328 c-5 -13 -25 -58 -44 -100 -20 -43 -32 -78 -26 -78 5 0 15
11 21 25 10 23 17 25 70 25 53 0 60 -2 70 -25 14 -31 31 -33 19 -2 -29 74 -81
177 -91 177 -6 0 -14 -10 -19 -22z m69 -104 c0 -2 -20 -4 -45 -4 -25 0 -45 4
-45 9 0 5 9 31 20 57 l21 48 24 -53 c14 -29 25 -55 25 -57z"/>
<path d="M2270 250 c0 -60 4 -100 10 -100 6 0 10 16 10 35 l0 35 48 0 c57 0
82 20 82 68 0 42 -31 62 -97 62 l-53 0 0 -100z m124 64 c35 -35 8 -74 -57 -81
l-47 -6 0 52 0 51 44 0 c27 0 51 -6 60 -16z"/>
<path d="M2530 250 c0 -60 4 -100 10 -100 6 0 10 16 10 35 0 35 0 35 45 35 52
0 85 25 85 65 0 43 -33 65 -95 65 l-55 0 0 -100z m118 68 c14 -14 15 -47 3
-67 -5 -7 -29 -16 -55 -18 l-46 -6 0 52 0 51 43 0 c24 0 48 -5 55 -12z"/>
<path d="M2801 283 c23 -41 40 -82 40 -103 l2 -35 6 40 c6 36 20 65 69 143 8
12 10 22 4 22 -6 0 -22 -20 -36 -44 -15 -25 -30 -47 -35 -50 -5 -3 -23 17 -41
44 -48 74 -55 61 -9 -17z"/>
<path d="M3211 336 c-29 -16 -50 -52 -51 -88 0 -33 41 -84 76 -92 29 -8 94 10
94 26 0 6 -7 7 -17 3 -46 -20 -82 -17 -107 9 -70 69 14 174 102 127 13 -7 22
-8 22 -2 0 29 -77 40 -119 17z"/>
<path d="M3484 341 c-51 -22 -70 -97 -38 -146 34 -52 133 -53 169 -2 23 32 19
91 -8 122 -24 29 -86 42 -123 26z m97 -24 c45 -34 46 -92 2 -127 -80 -63 -182
42 -113 115 26 28 83 34 111 12z"/>
<path d="M3750 250 l0 -100 43 0 c119 0 177 106 95 175 -24 20 -40 25 -84 25
l-54 0 0 -100z m135 55 c58 -57 13 -135 -76 -135 l-49 0 0 80 0 80 50 0 c41 0
56 -5 75 -25z"/>
<path d="M4040 250 c0 -60 4 -100 10 -100 6 0 10 40 10 100 0 60 -4 100 -10
100 -6 0 -10 -40 -10 -100z"/>
<path d="M4190 250 c0 -120 18 -136 22 -19 l3 81 59 -81 c33 -45 63 -81 68
-81 4 0 7 46 6 103 l-2 102 -3 -82 c-2 -46 -7 -83 -11 -83 -4 1 -33 37 -65 80
-33 44 -63 80 -68 80 -5 0 -9 -45 -9 -100z"/>
<path d="M4499 321 c-22 -22 -29 -39 -29 -68 0 -74 58 -116 131 -94 38 11 39
13 38 54 -2 33 -3 36 -6 12 -9 -62 -83 -77 -127 -24 -14 17 -26 37 -26 44 0
59 57 100 118 83 41 -12 55 -3 18 12 -49 18 -85 12 -117 -19z"/>
</g>
</svg>
